<svg width="154" height="48" viewBox="0 0 154 48" fill="none" xmlns="http://www.w3.org/2000/svg">
<rect width="154" height="48" fill="black"/>
<path d="M18.5956 33L20.1301 28.5615H27.1216L28.6652 33H32.2608L25.7052 15H21.5466L15 33H18.5956ZM21.0381 25.9424L23.5532 18.6914H23.6985L26.2136 25.9424H21.0381Z" fill="white"/>
<path d="M35.9885 33H39.3572V26.4082H42.7894L46.4395 33H50.1985L46.1762 25.8633C48.3644 25.0107 49.5175 23.2002 49.5175 20.7568C49.5175 17.3203 47.2294 15 42.9619 15H35.9885V33ZM39.3572 23.7012V17.7246H42.4443C44.9594 17.7246 46.0854 18.8408 46.0854 20.7568C46.0854 22.6729 44.9594 23.7012 42.4625 23.7012H39.3572Z" fill="white"/>
<path d="M53.0796 17.7334H58.8271V33H62.1685V17.7334H67.9161V15H53.0796V17.7334Z" fill="white"/>
<path d="M75.4233 15H72.0547V33H75.4233V15Z" fill="white"/>
<path d="M80.0045 33H93.7696V30.2666H84.1903L93.7151 17.0303V15H79.95V17.7334H89.5384L80.0045 30.9697V33Z" fill="white"/>
<path d="M101.676 15H98.3077V33H101.676V15Z" fill="white"/>
<path d="M121.884 15H118.534V27.2695H118.37L109.617 15H106.603V33H109.971V20.7393H110.126L118.888 33H121.884V15Z" fill="white"/>
<path d="M126.833 33H139V30.2666H130.202V25.3535H138.301V22.6201H130.202V17.7334H138.927V15H126.833V33Z" fill="white"/>
</svg>
